<svg height="25pt" viewBox="0 0 512.00004 512" width="25pt" xmlns="http://www.w3.org/2000/svg"><path d="m509.9375 504.800781c-2.703125 4.5-7.5 7.199219-12.902344 7.199219h-95.835937l-50.699219-30.601562-4.5-8.398438-71.699219-132.398438c-2.699219-4.503906-2.699219-9.902343 0-14.402343l58.5-107.398438c2.699219-4.800781 7.800781-7.203125 13.199219-7.203125s10.5 2.402344 13.199219 7.203125l151.035156 271c2.402344 4.796875 2.402344 10.199219-.296875 15zm0 0" fill="#384949"/><path d="m509.9375 504.800781c-2.703125 4.5-7.5 7.199219-12.902344 7.199219h-95.835937l-50.699219-30.601562-4.5-8.398438v-261.402344c5.398438 0 10.5 2.402344 13.199219 7.203125l151.035156 271c2.402344 4.796875 2.402344 10.199219-.296875 15zm0 0" fill="#293939"/><path d="m406 151h-120c-8.292969 0-15-6.707031-15-15v-90c0-8.289062 6.707031-15 15-15h120c5.535156 0 10.621094 3.046875 13.226562 7.925781 2.609376 4.878907 2.316407 10.796875-.746093 15.394531l-24.449219 36.679688 24.449219 36.679688c3.0625 4.601562 3.351562 10.519531.746093 15.394531-2.605468 4.878906-7.691406 7.925781-13.226562 7.925781zm0 0" fill="#ff193d"/><path d="m401.199219 512h-386.234375c-5.398438 0-10.199219-2.699219-12.898438-7.199219-2.703125-4.800781-2.703125-10.203125-.300781-15l106.335937-194.199219 30.597657-15.601562 25.5 16.800781 21.300781-21.300781c2.699219-3 6.601562-4.5 10.5-4.5s7.800781 1.5 10.5 4.5l21.300781 21.300781 25.5-16.800781 30.597657 15.601562zm0 0" fill="#4a696f"/><path d="m211 82v84c0 8.398438-6.597656 15-15 15s-15-6.601562-15-15v-45zm0 0" fill="#3e5959"/><path d="m196 181v-79.5l15-19.5v84c0 8.398438-6.597656 15-15 15zm0 0" fill="#384949"/><path d="m401.199219 512h-205.199219v-241c3.898438 0 7.800781 1.5 10.5 4.5l21.300781 21.300781 25.5-16.800781 30.597657 15.601562zm0 0" fill="#3e5959"/><path d="m209.199219 158.800781c-2.699219-4.800781-7.800781-7.203125-13.199219-7.203125s-10.5 2.402344-13.199219 7.203125l-74.699219 136.800781 49.496094 32.996094c6 3.902344 14.101563 3 18.902344-2.097656l19.5-19.199219 19.5 19.199219c4.800781 5.097656 12.902344 6 18.902344 2.097656l49.496094-32.996094zm0 0" fill="#dfd7d5"/><path d="m209.199219 158.800781 74.699219 136.800781-49.496094 32.996094c-6 3.902344-14.101563 3-18.902344-2.097656l-19.5-19.199219v-155.703125c5.398438 0 10.5 2.402344 13.199219 7.203125zm0 0" fill="#d2c5c2"/><path d="m286 0h-90c-8.402344 0-15 6.597656-15 15v106h105c8.402344 0 15-6.601562 15-15v-91c0-8.402344-6.597656-15-15-15zm0 0" fill="#ff8597"/><path d="m301 15v91c0 8.398438-6.597656 15-15 15h-90v-121h90c8.402344 0 15 6.597656 15 15zm0 0" fill="#ff6c6c"/></svg>