<?xml version="1.0" encoding="UTF-8"?>
<svg width="24px" height="24px" viewBox="0 0 24 24" version="1.1" xmlns="http://www.w3.org/2000/svg" xmlns:xlink="http://www.w3.org/1999/xlink">
    <!-- Generator: Sketch 48.2 (47327) - http://www.bohemiancoding.com/sketch -->
    <title>viewIconMakeCopy</title>
    <desc>Created with Sketch.</desc>
    <defs></defs>
    <g id="Top-button/icons-" stroke="none" stroke-width="1" fill="none" fill-rule="evenodd">
        <g id="viewIconMakeCopy">
            <g id="Group">
                <path d="M17,5 L15,5 L15,4 L5,4 L5,17 L7,17 L7,19 L4,19 C3.44771525,19 3,18.5522847 3,18 L3,3 C3,2.44771525 3.44771525,2 4,2 L16,2 C16.5522847,2 17,2.44771525 17,3 L17,5 Z" id="Combined-Shape" fill="#9DAADF"></path>
                <path d="M9,6 L21,6 C21.5522847,6 22,6.44771525 22,7 L22,21 C22,21.5522847 21.5522847,22 21,22 L9,22 C8.44771525,22 8,21.5522847 8,21 L8,7 C8,6.44771525 8.44771525,6 9,6 Z M10,8 L10,20 L20,20 L20,8 L10,8 Z M12,11 L18,11 L18,13 L12,13 L12,11 Z M12,15 L18,15 L18,17 L12,17 L12,15 Z" id="Combined-Shape" fill="#9DAADF"></path>
                <rect id="Rectangle-29" x="0" y="0" width="24" height="24"></rect>
            </g>
        </g>
    </g>
</svg>