<?xml version="1.0" encoding="UTF-8"?>
<svg width="24px" height="24px" viewBox="0 0 24 24" version="1.1" xmlns="http://www.w3.org/2000/svg" xmlns:xlink="http://www.w3.org/1999/xlink">
    <!-- Generator: Sketch 48.2 (47327) - http://www.bohemiancoding.com/sketch -->
    <title>viewIconHelp</title>
    <desc>Created with Sketch.</desc>
    <defs></defs>
    <g id="Top-button/icons-" stroke="none" stroke-width="1" fill="none" fill-rule="evenodd">
        <g id="viewIconHelp" fill="#9DAADF" fill-rule="nonzero">
            <g id="INFO-ICON" transform="translate(2.000000, 2.000000)">
                <path d="M10.0319711,5.35657532e-05 C15.5218938,0.0180535027 20.0318303,4.5320377 19.9998308,9.98401861 C19.9966501,12.6436008 18.937095,15.1929898 17.0542558,17.071348 C15.1714167,18.9497062 12.6195262,20.003168 9.95997209,19.9999835 C4.46604943,20.0099835 -0.0258873339,15.4619994 0.000112300116,9.91201886 C0.048492991,4.41108918 4.53091567,-0.0177628446 10.0319711,5.35657532e-05 Z M10.0811345,1.976921 C7.94399051,1.95635698 5.88736511,2.78896795 4.36942541,4.28926804 C2.85148571,5.78956812 1.99832704,7.83292733 2.00001281,9.96413394 C1.95050827,14.3260013 5.58018141,17.9671436 9.96628399,17.9770165 C12.1028564,17.9817849 14.1529228,17.1357824 15.6612928,15.6268528 C17.1696628,14.1179232 18.0114985,12.0709508 17.9998813,9.94043887 C17.974139,5.566724 14.4098118,1.98284477 10.0811345,1.976921 Z" id="Shape"></path>
                <path d="M8,12.9980198 L9,13 L9,10 L8,10 L8,8 L11,8 L11,13 L12,13 L12,14.9960396 L8,14.9940594 L8,12.9980198 Z M11,5.99566261 C10.9904987,6.55381199 10.5336024,7.00102643 9.97392125,6.99999823 C9.42954421,6.98491857 8.99696969,6.53882795 9.00001599,5.99566261 C9.01214127,5.44749562 9.4572869,5.00733919 10.0069645,5 C10.5558487,5.0038077 10.9990587,5.44819017 11,5.99566261 Z" id="Combined-Shape"></path>
            </g>
        </g>
    </g>
</svg>
