<?xml version="1.0" encoding="UTF-8"?>
<svg width="24px" height="24px" viewBox="0 0 24 24" version="1.1" xmlns="http://www.w3.org/2000/svg" xmlns:xlink="http://www.w3.org/1999/xlink">
    <!-- Generator: Sketch 48.2 (47327) - http://www.bohemiancoding.com/sketch -->
    <title>viewIconShare</title>
    <desc>Created with Sketch.</desc>
    <defs></defs>
    <g id="Top-button/icons-" stroke="none" stroke-width="1" fill="none" fill-rule="evenodd">
        <g id="viewIconShare" fill="#9DAADF">
            <path d="M14.76,15.7326984 L8.54730159,12.7415873 C8.59428571,12.5009524 8.6215873,12.2526984 8.6215873,12 C8.6215873,11.7447619 8.59428571,11.4990476 8.54730159,11.2584127 L14.76,8.2647619 C15.4590476,9.09079365 16.5009524,9.61904762 17.6666667,9.61904762 C19.767619,9.61904762 21.4761905,7.91047619 21.4761905,5.80952381 C21.4761905,3.70857143 19.767619,2 17.6666667,2 C15.5657143,2 13.8571429,3.70857143 13.8571429,5.80952381 C13.8571429,6.06222222 13.8844444,6.31047619 13.9314286,6.55111111 L7.71619048,9.54222222 C7.01714286,8.71619048 5.9752381,8.19047619 4.80952381,8.19047619 C2.70857143,8.19047619 1,9.89904762 1,12 C1,14.1009524 2.70857143,15.8095238 4.80952381,15.8095238 C5.9752381,15.8095238 7.01714286,15.2838095 7.71619048,14.4552381 L13.9314286,17.4488889 C13.8844444,17.6895238 13.8571429,17.9377778 13.8571429,18.1904762 C13.8571429,20.2914286 15.5657143,22 17.6666667,22 C19.767619,22 21.4761905,20.2914286 21.4761905,18.1904762 C21.4761905,16.0895238 19.767619,14.3809524 17.6666667,14.3809524 C16.5034921,14.3809524 15.4590476,14.9066667 14.76,15.7326984 Z M19.5714286,5.80952381 C19.5714286,6.86095238 18.7155556,7.71428571 17.6666667,7.71428571 C16.6177778,7.71428571 15.7619048,6.86095238 15.7619048,5.80952381 C15.7619048,4.75809524 16.6177778,3.9047619 17.6666667,3.9047619 C18.7155556,3.9047619 19.5714286,4.75809524 19.5714286,5.80952381 Z M2.9047619,12 C2.9047619,10.9485714 3.75809524,10.0952381 4.80952381,10.0952381 C5.86095238,10.0952381 6.71428571,10.9485714 6.71428571,12 C6.71428571,13.0514286 5.86095238,13.9047619 4.80952381,13.9047619 C3.75809524,13.9047619 2.9047619,13.0514286 2.9047619,12 Z M15.7619048,18.1904762 C15.7619048,17.1390476 16.6177778,16.2857143 17.6666667,16.2857143 C18.7155556,16.2857143 19.5714286,17.1390476 19.5714286,18.1904762 C19.5714286,19.2419048 18.7155556,20.0952381 17.6666667,20.0952381 C16.6177778,20.0952381 15.7619048,19.2419048 15.7619048,18.1904762 Z" id="Page-1"></path>
        </g>
    </g>
</svg>
