<?xml version="1.0" encoding="UTF-8"?>
<svg width="24px" height="24px" viewBox="0 0 24 24" version="1.1" xmlns="http://www.w3.org/2000/svg" xmlns:xlink="http://www.w3.org/1999/xlink">
    <!-- Generator: Sketch 48.2 (47327) - http://www.bohemiancoding.com/sketch -->
    <title>viewIconAccount</title>
    <desc>Created with Sketch.</desc>
    <defs></defs>
    <g id="Top-button/icons-" stroke="none" stroke-width="1" fill="none" fill-rule="evenodd">
        <g id="viewIconAccount" fill="#9DAADF">
            <path d="M8.54396677,11.6132965 C7.592539,10.703026 7,9.42071046 7,8 C7,5.23857625 9.23857625,3 12,3 C14.7614237,3 17,5.23857625 17,8 C17,9.42071046 16.407461,10.703026 15.4560332,11.6132965 C19.2757804,13.0201274 22,16.6919259 22,21 L2,21 C2,16.6919259 4.72421959,13.0201274 8.54396677,11.6132965 Z M12,11 C13.6568542,11 15,9.65685425 15,8 C15,6.34314575 13.6568542,5 12,5 C10.3431458,5 9,6.34314575 9,8 C9,9.65685425 10.3431458,11 12,11 Z M19.487793,19 C18.9337891,15.731543 15.8659932,13 12,13 C8.13400675,13 5.07470703,15.6954102 4.78662109,19 L19.487793,19 Z" id="Combined-Shape"></path>
        </g>
    </g>
</svg>
