<?xml version="1.0" encoding="UTF-8"?>
<svg width="24px" height="24px" viewBox="0 0 24 24" version="1.1" xmlns="http://www.w3.org/2000/svg" xmlns:xlink="http://www.w3.org/1999/xlink">
    <!-- Generator: Sketch 50 (54983) - http://www.bohemiancoding.com/sketch -->
    <title>viewIconCommunity</title>
    <desc>Created with Sketch.</desc>
    <defs></defs>
    <g id="viewIconCommunity" stroke="none" stroke-width="1" fill="none" fill-rule="evenodd">
        <g id="Group-2" transform="translate(-1.000000, 3.000000)" fill="#9DAADF">
            <path d="M10.2970682,4.50591028 C10.2970682,3.01348638 11.5063396,1.80297852 13,1.80297852 C14.4936604,1.80297852 15.7041682,3.01348638 15.7041682,4.50591028 C15.7041682,5.99957065 14.4936604,7.21007852 13,7.21007852 C11.5063396,7.21007852 10.2970682,5.99957065 10.2970682,4.50591028 Z M8.49091458,4.49948542 C8.49091458,5.05626072 8.60515129,5.58216123 8.78834168,6.07307033 C8.83053722,6.18319039 8.87376192,6.29022298 8.92213242,6.39622642 C9.44700377,7.51698113 10.416472,8.38456261 11.603093,8.77358491 C12.0404858,8.91663808 12.5046367,9 12.9904,9 C13.416472,9 13.8199026,8.92178388 14.209954,8.81166381 C16.0984617,8.27753002 17.4909146,6.55986278 17.4909146,4.49948542 C17.4909146,2.01406518 15.4758202,0 12.9904,0 C10.5049798,0 8.49091458,2.01406518 8.49091458,4.49948542 Z" id="Fill-3"></path>
            <path d="M19.7739868,7.39047412 C20.5289868,7.39047412 21.1409868,8.00247412 21.1409868,8.75747412 C21.1409868,9.51147412 20.5289868,10.1234741 19.7739868,10.1234741 C19.0199868,10.1234741 18.4079868,9.51147412 18.4079868,8.75747412 C18.4079868,8.00247412 19.0199868,7.39047412 19.7739868,7.39047412 Z M17.2272644,9.94338989 C17.4781494,10.4624939 17.7339783,11.0193481 18.8302612,11.8675537 C18.9153312,11.9333732 19.8239312,12.4846497 20.3692803,12.7340088 C20.9146294,12.9833679 21.0573565,13.0592957 21.5391,13.3412781 C22.0208435,13.6232605 22.8531,14.8143 22.9501,15.9373 L21.4581,15.9373 C21.4831,15.9983 21.5141,16.0553 21.5391,16.1183 C21.6581,16.4213 21.7791,16.8443 21.8891,17.3033 L25.0001,17.3033 C24.9971,14.7013 23.2101,12.0487852 20.9011,11.5297852 C20.5098267,11.4331665 20.3432803,11.3773838 20.3322803,11.3793838 C21.5512803,11.1043838 22.4622803,10.0193838 22.4622803,8.71838379 C22.4622803,7.20938379 21.2382803,5.98538379 19.7292803,5.98538379 C18.6552803,5.98538379 17.7342803,6.61238379 17.2872803,7.51438379 C17.2472803,7.62138379 17.2052803,7.72538379 17.1572803,7.82738379 C17.0602803,8.10838379 16.9972803,8.40438379 16.9972803,8.71838379 C16.9972803,9.13138379 17.0632644,9.59238989 17.2272644,9.94338989 Z" id="Fill-16"></path>
            <path d="M3.77398682,7.39047412 C4.52898682,7.39047412 5.14098682,8.00247412 5.14098682,8.75747412 C5.14098682,9.51147412 4.52898682,10.1234741 3.77398682,10.1234741 C3.01998682,10.1234741 2.40798682,9.51147412 2.40798682,8.75747412 C2.40798682,8.00247412 3.01998682,7.39047412 3.77398682,7.39047412 Z M1.2272644,9.94338989 C1.47814941,10.4624939 1.73397827,11.0193481 2.83026123,11.8675537 C2.91533118,11.9333732 3.82393115,12.4846497 4.36928027,12.7340088 C4.91462939,12.9833679 5.05735649,13.0592957 5.5391,13.3412781 C6.02084351,13.6232605 6.8531,14.8143 6.9501,15.9373 L5.4581,15.9373 C5.4831,15.9983 5.5141,16.0553 5.5391,16.1183 C5.6581,16.4213 5.7791,16.8443 5.8891,17.3033 L9.0001,17.3033 C8.9971,14.7013 7.2101,12.0487852 4.9011,11.5297852 C4.50982666,11.4331665 4.34328027,11.3773838 4.33228027,11.3793838 C5.55128027,11.1043838 6.46228027,10.0193838 6.46228027,8.71838379 C6.46228027,7.20938379 5.23828027,5.98538379 3.72928027,5.98538379 C2.65528027,5.98538379 1.73428027,6.61238379 1.28728027,7.51438379 C1.24728027,7.62138379 1.20528027,7.72538379 1.15728027,7.82738379 C1.06028027,8.10838379 0.997280273,8.40438379 0.997280273,8.71838379 C0.997280273,9.13138379 1.0632644,9.59238989 1.2272644,9.94338989 Z" id="Fill-16" transform="translate(4.998690, 11.644342) scale(-1, 1) translate(-4.998690, -11.644342) "></path>
            <path d="M14.2245249,17.3333904 L6.78117188,17.3333904 C6.82832097,16.7296306 6.9896205,16.1653945 7.20551372,15.6297792 C7.5095013,14.8733758 7.95617692,14.19602 8.53189217,13.631784 C8.96367861,13.2079255 9.46370716,12.8372197 10.0133663,12.5564646 C10.8645315,12.1230659 11.8248841,11.8573025 12.868368,11.8573025 C13.9875386,11.8573025 15.0161333,12.158501 15.9181699,12.6545926 C15.9132069,12.6600441 16.8847264,13.3006019 17.294179,13.6999284 C17.8612089,14.2518984 18.3178107,14.9060851 18.6503358,15.6297792 C18.898489,16.1667574 19.0957707,16.7323563 19.1888281,17.3333904 L14.2245249,17.3333904 Z M20.7397141,15.4803766 C20.3002272,14.3947863 19.6792131,13.4176384 18.9159497,12.5990729 C18.5178638,12.1722995 18.0805,11.7898359 17.6123509,11.4551802 C16.2811516,10.5001872 14.6930541,9.94165039 12.9839384,9.94165039 C11.2801306,9.94165039 9.69627938,10.4978551 8.36720313,11.4470179 C7.89162313,11.7863377 7.44895156,12.1734655 7.04555781,12.6072353 C6.28547906,13.4246346 5.66764969,14.3982844 5.22816281,15.4803766 C5.03920469,15.9467957 4.88846281,16.4342036 4.77062938,16.9379361 C4.59547156,17.6830406 4.46666016,18.191929 4.46666016,19 L21.4516602,19 C21.4516602,18.191929 21.3734669,17.6830406 21.1983091,16.9379361 C21.0804756,16.4342036 20.9286722,15.9467957 20.7397141,15.4803766 Z" id="Fill-4"></path>
        </g>
    </g>
</svg>